<svg viewBox="0 0 65 24" fill="#E8E8E8" xmlns="http://www.w3.org/2000/svg" width="80" height="24">
  <!-- Top Left Finder -->
  <path d="M2 3h6v6H2V3zm1.5 1.5v3h3v-3h-3z" />
  <rect x="4" y="5" width="2" height="2" rx="0.2" />

  <!-- Top Right Finder -->
  <path d="M12 3h6v6h-6V3zm1.5 1.5v3h3v-3h-3z" />
  <rect x="14" y="5" width="2" height="2" rx="0.2" />

  <!-- Bottom Left Finder -->
  <path d="M2 12h6v6H2v-6zm1.5 1.5v3h3v-3h-3z" />
  <rect x="4" y="14" width="2" height="2" rx="0.2" />

  <!-- QR Pixels -->
  <rect x="10" y="5" width="1" height="2" />
  <rect x="9" y="8" width="2" height="1" />
  <rect x="9" y="12" width="2" height="2" />
  <rect x="13" y="12" width="1" height="2" />
  <rect x="16" y="12" width="2" height="1" />
  <rect x="12" y="15" width="2" height="2" />
  <rect x="15" y="15" width="3" height="1" />
  <rect x="9" y="16" width="2" height="2" />

  <!-- Text QRIS -->
  <text x="23" y="17" fontFamily="system-ui, sans-serif" fontWeight="900" fontSize="15" letterSpacing="-0.3">
    QRIS
  </text>
</svg>
